PathFileType	4	(X/Y/Z)	 2.5Hzlow3min.trc
DataRate	CameraRate	NumFrames	NumMarkers	Units	OrigDataRate	OrigDataStartFrame	OrigNumFrames
200	200	9	35	m	200	501	1000
Frame#	Time	C7			LSH			RSH			MAN			RASI			LASI			HIPR			HIPL			RPSI			LPSI			COX			RTHI1			RTHI2			RTHI3			RTHI4			RSHA1			RSHA2			RSHA3			RSHA4			RHEEL			RMET5			RMET1			RTOE			LTHI1			LTHI2			LTHI3			LTHI4			LSHA1			LSHA2			LSHA3			LSHA4			LHEEL			LMET5			LMET1			LTOE			
		X1	Y1	Z1	X2	Y2	Z2	X3	Y3	Z3	X4	Y4	Z4	X5	Y5	Z5	X6	Y6	Z6	X7	Y7	Z7	X8	Y8	Z8	X9	Y9	Z9	X10	Y10	Z10	X11	Y11	Z11	X12	Y12	Z12	X13	Y13	Z13	X14	Y14	Z14	X15	Y15	Z15	X16	Y16	Z16	X17	Y17	Z17	X18	Y18	Z18	X19	Y19	Z19	X20	Y20	Z20	X21	Y21	Z21	X22	Y22	Z22	X23	Y23	Z23	X24	Y24	Z24	X25	Y25	Z25	X26	Y26	Z26	X27	Y27	Z27	X28	Y28	Z28	X29	Y29	Z29	X30	Y30	Z30	X31	Y31	Z31	X32	Y32	Z32	X33	Y33	Z33	X34	Y34	Z34	X35	Y35	Z35	
501	2.5050	-0.257608	1.640194	-0.487958	-0.232242	1.619519	-0.718178	-0.201837	1.614303	-0.296595	-0.115157	1.567438	-0.510397	-0.116366	1.115561	-0.396003	-0.135582	1.115497	-0.621348	-0.175882	1.179943	-0.343082	-0.216367	1.181986	-0.666156	-0.304542	1.139308	-0.433672	-0.317223	1.139805	-0.544942	-0.317837	1.143457	-0.487711	-0.176557	0.902429	-0.307975	-0.157346	0.846446	-0.296355	-0.096106	0.860146	-0.312398	-0.107691	0.919167	-0.326123	-0.281230	0.353267	-0.276643	-0.297798	0.313299	-0.285109	-0.239261	0.296834	-0.285409	-0.227521	0.335072	-0.281092	-0.400251	0.104856	-0.332473	-0.235350	0.027281	-0.254528	-0.186116	0.041610	-0.344059	-0.155150	0.030810	-0.339695	-0.205499	0.864839	-0.714759	-0.180633	0.809611	-0.727133	-0.118954	0.830808	-0.725661	-0.135982	0.886816	-0.714097	-0.309911	0.338718	-0.728535	-0.324763	0.301909	-0.721723	-0.265120	0.282580	-0.728901	-0.257791	0.326476	-0.736302	-0.409565	0.104255	-0.667399	-0.249672	0.024685	-0.759796	-0.196515	0.042520	-0.687042	-0.163516	0.030189	-0.691586	
502	2.5100	-0.257743	1.636206	-0.488309	-0.232496	1.614927	-0.718782	-0.201863	1.609919	-0.296807	-0.114718	1.562627	-0.510883	-0.116946	1.111201	-0.396226	-0.136242	1.111193	-0.621553	-0.176582	1.175062	-0.343173	-0.217120	1.177017	-0.666350	-0.305275	1.134376	-0.433879	-0.317983	1.134935	-0.544981	-0.318450	1.138455	-0.487786	-0.177222	0.898651	-0.308229	-0.157923	0.842684	-0.296274	-0.096585	0.856544	-0.311959	-0.108247	0.915538	-0.325769	-0.281411	0.350489	-0.276129	-0.298178	0.310608	-0.284607	-0.239719	0.293810	-0.285131	-0.227766	0.332080	-0.280728	-0.401928	0.101721	-0.331579	-0.235556	0.026598	-0.253597	-0.186409	0.041561	-0.343817	-0.155281	0.030768	-0.339569	-0.205753	0.860511	-0.715240	-0.180756	0.805398	-0.727885	-0.119148	0.826901	-0.726977	-0.136335	0.882819	-0.715189	-0.309582	0.336012	-0.729249	-0.324666	0.299301	-0.722312	-0.265108	0.279635	-0.729280	-0.257526	0.323437	-0.736827	-0.410912	0.101393	-0.667455	-0.249812	0.024336	-0.760364	-0.196865	0.042468	-0.686922	-0.163671	0.030159	-0.691441	
503	2.5150	-0.257870	1.632325	-0.488679	-0.232811	1.610468	-0.719334	-0.201927	1.605650	-0.297062	-0.114274	1.557869	-0.511367	-0.117554	1.106909	-0.396419	-0.136933	1.106942	-0.621792	-0.177332	1.170258	-0.343255	-0.217946	1.172115	-0.666528	-0.306021	1.129577	-0.434105	-0.318748	1.130202	-0.544996	-0.319044	1.133630	-0.487855	-0.177924	0.894920	-0.308313	-0.158573	0.838995	-0.296205	-0.097135	0.853022	-0.311540	-0.108858	0.911989	-0.325425	-0.281467	0.347739	-0.275565	-0.298475	0.307998	-0.284030	-0.240083	0.290855	-0.284829	-0.227884	0.329096	-0.280339	-0.403552	0.098533	-0.330746	-0.235719	0.025948	-0.252723	-0.186673	0.041549	-0.343612	-0.155412	0.030730	-0.339427	-0.206062	0.856238	-0.715688	-0.180924	0.801256	-0.728627	-0.119402	0.823085	-0.728320	-0.136758	0.878910	-0.716291	-0.309146	0.333288	-0.729848	-0.324436	0.296675	-0.722789	-0.264956	0.276699	-0.729559	-0.257146	0.320409	-0.737246	-0.412098	0.098590	-0.667269	-0.249923	0.024041	-0.760812	-0.197127	0.042437	-0.686800	-0.163750	0.030144	-0.691328	
504	2.5200	-0.258002	1.628549	-0.489062	-0.233182	1.606188	-0.719829	-0.202030	1.601551	-0.297353	-0.113878	1.553240	-0.511839	-0.118183	1.102715	-0.396594	-0.137662	1.102760	-0.622054	-0.178123	1.165591	-0.343342	-0.218862	1.167334	-0.666693	-0.306768	1.124970	-0.434349	-0.319517	1.125671	-0.544980	-0.319631	1.129061	-0.487927	-0.178669	0.891257	-0.308349	-0.159274	0.835410	-0.296125	-0.097729	0.849590	-0.311156	-0.109515	0.908533	-0.325109	-0.281434	0.344981	-0.274956	-0.298670	0.305403	-0.283436	-0.240366	0.287917	-0.284546	-0.227935	0.326135	-0.279997	-0.405053	0.095377	-0.330038	-0.235853	0.025365	-0.251946	-0.186961	0.041539	-0.343412	-0.155568	0.030694	-0.339271	-0.206437	0.852059	-0.716116	-0.181146	0.797223	-0.729355	-0.119718	0.819398	-0.729655	-0.137263	0.875115	-0.717374	-0.308632	0.330548	-0.730303	-0.324107	0.294036	-0.723127	-0.264697	0.273776	-0.729708	-0.256684	0.317395	-0.737541	-0.413112	0.095893	-0.666815	-0.250021	0.023815	-0.761137	-0.197311	0.042427	-0.686684	-0.163755	0.030141	-0.691255	
505	2.5250	-0.258157	1.624886	-0.489446	-0.233604	1.602121	-0.720261	-0.202169	1.597643	-0.297673	-0.113551	1.548800	-0.512285	-0.118844	1.098651	-0.396772	-0.138408	1.098705	-0.622349	-0.178949	1.161108	-0.343439	-0.219860	1.162739	-0.666869	-0.307510	1.120605	-0.434592	-0.320285	1.121400	-0.544937	-0.320212	1.124798	-0.488002	-0.179409	0.887707	-0.308372	-0.159936	0.831971	-0.296063	-0.098344	0.846269	-0.310824	-0.110193	0.905193	-0.324839	-0.281340	0.342208	-0.274343	-0.298805	0.302826	-0.282808	-0.240597	0.285014	-0.284283	-0.227970	0.323113	-0.279679	-0.406430	0.092304	-0.329483	-0.235983	0.024858	-0.251271	-0.187276	0.041542	-0.343220	-0.155753	0.030659	-0.339106	-0.206897	0.848022	-0.716545	-0.181431	0.793331	-0.730074	-0.120110	0.815867	-0.730944	-0.137863	0.871465	-0.718419	-0.308081	0.327822	-0.730585	-0.323716	0.291421	-0.723283	-0.264374	0.270897	-0.729727	-0.256183	0.314440	-0.737709	-0.413950	0.093337	-0.666082	-0.250125	0.023647	-0.761339	-0.197423	0.042443	-0.686581	-0.163694	0.030149	-0.691231	
506	2.5300	-0.258343	1.621351	-0.489820	-0.234070	1.598299	-0.720633	-0.202336	1.593951	-0.298011	-0.113318	1.544613	-0.512699	-0.119535	1.094722	-0.396962	-0.139193	1.094744	-0.622686	-0.179790	1.156857	-0.343556	-0.220947	1.158371	-0.667045	-0.308249	1.116546	-0.434814	-0.321051	1.117440	-0.544873	-0.320792	1.120892	-0.488068	-0.180115	0.884328	-0.308356	-0.160584	0.828664	-0.295903	-0.098958	0.843116	-0.310533	-0.110874	0.902007	-0.324632	-0.281221	0.339411	-0.273753	-0.298893	0.300266	-0.282180	-0.240782	0.282167	-0.284051	-0.227990	0.320158	-0.279453	-0.407640	0.089319	-0.329143	-0.236112	0.024430	-0.250693	-0.187587	0.041545	-0.343028	-0.155955	0.030621	-0.338937	-0.207439	0.844161	-0.716982	-0.181784	0.789626	-0.730780	-0.120581	0.812518	-0.732166	-0.138558	0.868011	-0.719414	-0.307530	0.325174	-0.730670	-0.323298	0.288873	-0.723234	-0.264022	0.268109	-0.729609	-0.255682	0.311599	-0.737745	-0.414608	0.090950	-0.665073	-0.250235	0.023561	-0.761441	-0.197480	0.042464	-0.686487	-0.163572	0.030170	-0.691260	
507	2.5350	-0.258562	1.617979	-0.490175	-0.234569	1.594744	-0.720956	-0.202525	1.590495	-0.298357	-0.113189	1.540736	-0.513086	-0.120252	1.090955	-0.397169	-0.139991	1.090976	-0.623064	-0.180634	1.152876	-0.343706	-0.222094	1.154279	-0.667239	-0.308982	1.112833	-0.435003	-0.321811	1.113819	-0.544806	-0.321385	1.117366	-0.488133	-0.180781	0.881175	-0.308306	-0.161174	0.825584	-0.295719	-0.099549	0.840175	-0.310287	-0.111540	0.899025	-0.324485	-0.281115	0.336654	-0.273165	-0.298926	0.297711	-0.281605	-0.240921	0.279407	-0.283857	-0.227996	0.317303	-0.279258	-0.408714	0.086514	-0.328941	-0.236229	0.024086	-0.250211	-0.187876	0.041562	-0.342856	-0.156141	0.030589	-0.338780	-0.208063	0.840514	-0.717417	-0.182206	0.786143	-0.731460	-0.121124	0.809386	-0.733309	-0.139335	0.864772	-0.720357	-0.307006	0.322667	-0.730542	-0.322882	0.286460	-0.722963	-0.263673	0.265476	-0.729347	-0.255208	0.308926	-0.737640	-0.415093	0.088739	-0.663804	-0.250367	0.023534	-0.761437	-0.197477	0.042496	-0.686406	-0.163394	0.030207	-0.691344	
508	2.5400	-0.258804	1.614814	-0.490506	-0.235083	1.591484	-0.721246	-0.202734	1.587306	-0.298709	-0.113161	1.537226	-0.513456	-0.120971	1.087389	-0.397414	-0.140804	1.087392	-0.623464	-0.181460	1.149202	-0.343885	-0.223315	1.150520	-0.667485	-0.309701	1.109498	-0.435167	-0.322566	1.110553	-0.544759	-0.321995	1.114226	-0.488201	-0.181415	0.878337	-0.308246	-0.161708	0.822790	-0.295523	-0.100121	0.837476	-0.310083	-0.112188	0.896285	-0.324397	-0.281078	0.333968	-0.272737	-0.298914	0.295199	-0.281115	-0.241022	0.276788	-0.283717	-0.227994	0.314581	-0.279113	-0.409655	0.083918	-0.328866	-0.236330	0.023815	-0.249819	-0.188113	0.041565	-0.342719	-0.156289	0.030565	-0.338645	-0.208750	0.837116	-0.717834	-0.182691	0.782900	-0.732086	-0.121728	0.806496	-0.734366	-0.140180	0.861774	-0.721239	-0.306514	0.320366	-0.730210	-0.322481	0.284225	-0.722481	-0.263344	0.263044	-0.728952	-0.254780	0.306458	-0.737402	-0.415411	0.086709	-0.662284	-0.250520	0.023562	-0.761337	-0.197420	0.042516	-0.686326	-0.163175	0.030250	-0.691473	
509	2.5450	-0.259058	1.611904	-0.490814	-0.235601	1.588536	-0.721519	-0.202947	1.584390	-0.299061	-0.113198	1.534092	-0.513822	-0.121706	1.084054	-0.397694	-0.141617	1.084024	-0.623886	-0.182250	1.145857	-0.344086	-0.224555	1.147123	-0.667777	-0.310400	1.106564	-0.435317	-0.323308	1.107653	-0.544751	-0.322615	1.111471	-0.488296	-0.181992	0.875826	-0.308196	-0.162202	0.820318	-0.295324	-0.100672	0.835067	-0.309922	-0.112812	0.893828	-0.324358	-0.281095	0.331454	-0.272479	-0.298888	0.292805	-0.280746	-0.241093	0.274372	-0.283643	-0.228010	0.312041	-0.279172	-0.410477	0.081547	-0.328913	-0.236415	0.023611	-0.249514	-0.188293	0.041572	-0.342609	-0.156388	0.030545	-0.338531	-0.209476	0.834008	-0.718215	-0.183224	0.779931	-0.732650	-0.122378	0.803868	-0.735323	-0.141062	0.859048	-0.722051	-0.306065	0.318298	-0.729693	-0.322097	0.282209	-0.721812	-0.263035	0.260852	-0.728461	-0.254396	0.304247	-0.737052	-0.415577	0.084869	-0.660570	-0.250693	0.023629	-0.761155	-0.197314	0.042524	-0.686247	-0.162929	0.030303	-0.691640	
